<?xml version="1.0" standalone="no"?>
<!DOCTYPE svg PUBLIC "-//W3C//DTD SVG 20010904//EN"
 "http://www.w3.org/TR/2001/REC-SVG-20010904/DTD/svg10.dtd">
<svg version="1.0" xmlns="http://www.w3.org/2000/svg"
 width="584.000000pt" height="584.000000pt" viewBox="0 0 584.000000 584.000000"
 preserveAspectRatio="xMidYMid meet">
<metadata>
Created by potrace 1.14, written by Peter Selinger 2001-2017
</metadata>
<g transform="translate(0.000000,584.000000) scale(0.100000,-0.100000)"
fill="#000000" stroke="none">
<path d="M1463 5466 c-49 -23 -153 -115 -153 -135 0 -5 -6 -16 -13 -23 -7 -7
-44 -56 -82 -108 -39 -52 -75 -102 -82 -110 -7 -8 -42 -55 -77 -105 -36 -49
-69 -95 -73 -100 -4 -6 -21 -28 -38 -50 -16 -22 -33 -41 -37 -43 -4 -2 -8 -8
-8 -14 0 -6 -10 -22 -22 -37 -13 -15 -31 -38 -41 -52 -61 -84 -240 -327 -250
-339 -6 -8 -20 -27 -29 -41 -9 -14 -23 -32 -30 -40 -8 -8 -33 -41 -55 -74 -23
-33 -112 -154 -198 -270 -245 -330 -235 -313 -240 -410 -4 -86 32 -156 138
-269 18 -18 52 -56 76 -82 24 -27 76 -85 115 -128 39 -44 82 -91 96 -106 14
-14 57 -62 95 -105 39 -44 81 -91 95 -105 14 -15 57 -62 96 -106 138 -153 162
-179 195 -215 19 -20 63 -69 99 -110 36 -40 76 -84 90 -99 14 -14 59 -64 100
-110 41 -46 80 -88 85 -94 6 -6 48 -53 95 -105 47 -52 94 -104 105 -115 11
-12 56 -61 100 -110 44 -49 91 -101 105 -116 14 -15 54 -60 90 -100 36 -40 85
-93 108 -119 24 -25 56 -60 70 -77 23 -26 82 -92 222 -245 14 -15 54 -60 90
-100 36 -40 89 -98 118 -128 28 -30 52 -56 52 -59 0 -2 15 -19 33 -37 17 -18
61 -66 97 -106 159 -178 180 -195 269 -214 51 -10 66 -10 120 7 66 20 109 57
246 212 39 43 81 91 95 106 14 15 52 57 85 94 33 37 76 84 95 105 19 20 64 70
100 110 36 40 81 90 100 111 39 41 174 190 203 224 29 34 179 197 217 238 19
20 54 58 76 85 23 26 55 62 70 78 43 46 274 300 304 335 15 18 154 170 220
242 19 20 46 50 59 65 13 16 49 55 80 89 31 33 88 95 126 139 39 43 77 85 85
94 9 9 56 61 105 115 50 55 97 107 105 116 13 14 143 157 205 226 11 12 51 57
90 99 111 123 134 166 139 256 4 72 -17 124 -81 208 -7 9 -32 43 -56 76 -142
193 -258 351 -265 360 -4 6 -54 73 -110 150 -57 77 -109 148 -117 157 -7 9
-22 29 -32 45 -9 15 -20 30 -23 33 -3 3 -44 57 -90 120 -46 63 -88 120 -92
125 -14 16 -142 191 -158 215 -8 12 -20 28 -25 34 -6 6 -26 34 -45 61 -19 28
-37 52 -40 55 -3 3 -17 21 -30 40 -13 19 -27 37 -30 40 -3 3 -22 27 -41 55
-70 101 -129 163 -174 184 -17 7 -38 17 -47 22 -10 5 -637 9 -1420 9 l-1403 0
-52 -24z m460 -580 c119 -127 249 -267 302 -324 33 -35 76 -81 95 -102 19 -20
76 -81 125 -135 50 -54 119 -129 155 -166 36 -38 92 -98 125 -135 33 -36 90
-98 128 -138 l68 -71 47 51 c26 28 85 93 132 144 47 52 96 106 110 120 14 15
66 71 115 125 50 54 104 112 120 130 17 18 68 74 115 125 47 52 96 105 110
120 14 15 63 69 110 120 184 201 175 193 210 192 39 -1 78 -25 90 -57 10 -27
-2 -74 -31 -115 -26 -38 -89 -140 -89 -144 0 -3 -22 -41 -50 -85 -27 -44 -50
-85 -50 -90 0 -5 -3 -11 -8 -13 -6 -2 -89 -135 -100 -160 -2 -4 -28 -47 -58
-95 -30 -49 -60 -99 -66 -113 -7 -14 -18 -31 -25 -38 -7 -7 -13 -20 -13 -28 0
-8 -4 -14 -8 -14 -5 0 -16 -15 -25 -32 -20 -38 -38 -69 -90 -154 -20 -34 -37
-63 -37 -66 0 -2 15 -5 33 -6 17 -1 57 -5 87 -7 30 -3 89 -7 130 -10 41 -3 95
-7 120 -10 25 -2 81 -7 125 -11 44 -3 96 -8 115 -10 19 -1 73 -6 120 -9 47 -3
105 -8 130 -10 40 -4 107 -9 245 -20 58 -5 182 -15 240 -20 28 -3 79 -7 115
-9 36 -3 92 -7 125 -10 66 -5 105 -17 122 -38 20 -24 24 -76 9 -107 -17 -32
-42 -41 -126 -47 -30 -2 -84 -6 -120 -9 -36 -3 -90 -7 -120 -10 -115 -9 -207
-17 -250 -21 -25 -3 -72 -6 -106 -9 -33 -2 -87 -7 -119 -10 -32 -4 -81 -9
-109 -10 -59 -4 -170 -12 -271 -21 -38 -3 -86 -7 -105 -9 -46 -3 -206 -16
-250 -21 -19 -2 -71 -6 -115 -9 -44 -4 -100 -9 -125 -11 -25 -2 -67 -6 -95 -8
-27 -2 -93 -8 -145 -12 -110 -9 -254 -9 -355 0 -38 3 -95 8 -125 11 -30 2 -84
7 -120 10 -36 3 -94 8 -130 10 -36 3 -90 8 -120 10 -30 3 -80 8 -110 10 -30 3
-84 7 -120 10 -36 3 -90 7 -120 10 -81 7 -166 14 -250 21 -41 3 -95 7 -120 10
-25 2 -74 6 -110 9 -36 2 -85 7 -110 9 -25 2 -81 7 -125 10 -44 4 -102 9 -130
12 -27 2 -81 6 -120 9 -100 6 -187 15 -208 21 -24 7 -49 59 -45 94 4 36 51 80
86 81 15 1 41 2 57 4 17 2 64 6 105 9 41 3 102 8 135 10 33 3 94 8 135 12 41
3 91 7 110 9 88 8 200 17 255 21 68 5 168 13 235 19 25 2 77 6 115 9 39 3 104
9 145 12 41 4 91 8 110 9 19 2 76 6 125 10 50 4 95 8 102 8 13 0 7 22 -19 59
-10 14 -18 31 -18 37 0 6 -4 11 -10 11 -5 0 -10 5 -10 11 0 6 -13 30 -30 54
-16 24 -30 47 -30 50 0 4 -8 19 -19 33 -28 40 -71 115 -78 135 -3 9 -9 17 -14
17 -5 0 -9 5 -9 11 0 6 -13 30 -30 54 -16 24 -30 46 -30 50 0 4 -13 25 -28 48
-16 23 -32 49 -35 57 -4 8 -18 33 -31 55 -39 62 -96 157 -114 190 -9 17 -19
32 -22 35 -3 3 -10 14 -16 25 -29 53 -40 70 -46 75 -4 3 -18 29 -32 59 -34 75
-17 121 51 140 36 10 58 -1 106 -53z"/>
</g>
</svg>
